<?xml version="1.0" standalone="no"?><!DOCTYPE svg PUBLIC "-//W3C//DTD SVG 1.1//EN" "http://www.w3.org/Graphics/SVG/1.1/DTD/svg11.dtd"><svg t="1519738980458" class="icon" style="" viewBox="0 0 1024 1024" version="1.1" xmlns="http://www.w3.org/2000/svg" p-id="1130" xmlns:xlink="http://www.w3.org/1999/xlink" width="48" height="48"><defs><style type="text/css"></style></defs><path d="M698.842537 425.571902c0 13.699122-11.114146 24.825756-24.825756 24.825756-13.730341 0-24.844488-11.12039-24.844488-24.825756 0-13.730341 11.114146-24.844488 24.844488-24.844488C687.72839 400.727415 698.842537 411.841561 698.842537 425.571902z" p-id="1131"></path><path d="M351.157073 262.243902 203.844683 262.243902c-1.860683 0-7.523902 0-9.153561-4.008585-1.585951-3.889951 2.172878-7.573854 3.409171-8.785171l156.066341-151.383415c4.189659-4.096 8.778927-4.651707 11.619902-1.792 1.67961 1.692098 2.516293 4.327024 2.478829 7.82361l-1.386146 143.859512C366.810537 256.237268 360.198244 262.243902 351.157073 262.243902zM200.903805 255.731512C201.453268 255.868878 202.371122 256 203.844683 256L351.157073 256c4.533073 0 9.434537-2.535024 9.484488-8.104585l1.386146-143.859512c0.018732-2.285268-0.505756-3.228098-0.686829-3.377951 0.03122 0.037463-0.955317 0.062439-2.816 1.885659L202.458537 253.927024C201.640585 254.726244 201.172293 255.325659 200.903805 255.731512z" p-id="1132"></path><path d="M805.831805 930.44761 216.070244 930.44761c-12.550244 0-22.765268-10.215024-22.765268-22.765268L193.304976 259.702634l6.243902 0L199.548878 907.676098c0 9.109854 7.411512 16.521366 16.521366 16.521366l589.761561 0c9.109854 0 16.521366-7.417756 16.521366-16.521366L822.353171 116.155317c0-9.109854-7.411512-16.521366-16.521366-16.521366L359.623805 99.633951l0-6.243902 446.201756 0c12.550244 0 22.765268 10.215024 22.765268 22.765268L828.590829 907.676098C828.597073 920.232585 818.382049 930.44761 805.831805 930.44761z" p-id="1133"></path><path d="M265.172293 630.634146 757.073171 630.634146 644.20839 477.658537 543.868878 595.805659 408.97561 395.451317Z" p-id="1134"></path><path d="M901.931707 1024 892.878049 1024l0-6.243902 9.053659 0c5.332293 0 9.678049-6.243902 9.678049-12.487805l6.243902 0C917.853659 1017.756098 910.710634 1024 901.931707 1024zM861.658537 1024l-31.219512 0 0-6.243902 31.219512 0L861.658537 1024zM799.219512 1024l-31.219512 0 0-6.243902 31.219512 0L799.219512 1024zM736.780488 1024l-31.219512 0 0-6.243902 31.219512 0L736.780488 1024zM674.341463 1024l-31.219512 0 0-6.243902 31.219512 0L674.341463 1024zM611.902439 1024l-31.219512 0 0-6.243902 31.219512 0L611.902439 1024zM549.463415 1024l-31.219512 0 0-6.243902 31.219512 0L549.463415 1024zM487.02439 1024l-31.219512 0 0-6.243902 31.219512 0L487.02439 1024zM424.585366 1024l-31.219512 0 0-6.243902 31.219512 0L424.585366 1024zM362.146341 1024l-31.219512 0 0-6.243902 31.219512 0L362.146341 1024zM299.707317 1024l-31.219512 0 0-6.243902 31.219512 0L299.707317 1024zM237.268293 1024l-31.219512 0 0-6.243902 31.219512 0L237.268293 1024zM174.829268 1024 143.609756 1024l0-6.243902 31.219512 0L174.829268 1024zM112.60878 1010.725463C112.465171 1009.863805 112.390244 1008.983415 112.390244 1008.071805L112.390244 980.292683l6.243902 0 0 27.779122c0 0.555707 0.043707 1.098927 0.131122 1.629659L112.60878 1010.725463zM917.853659 986.536585l-6.243902 0 0-31.219512 6.243902 0L917.853659 986.536585zM118.634146 949.073171 112.390244 949.073171l0-31.219512 6.243902 0L118.634146 949.073171zM917.853659 924.097561l-6.243902 0 0-31.219512 6.243902 0L917.853659 924.097561zM118.634146 886.634146 112.390244 886.634146l0-31.219512 6.243902 0L118.634146 886.634146zM917.853659 861.658537l-6.243902 0 0-31.219512 6.243902 0L917.853659 861.658537zM118.634146 824.195122 112.390244 824.195122l0-31.219512 6.243902 0L118.634146 824.195122zM917.853659 799.219512l-6.243902 0 0-31.219512 6.243902 0L917.853659 799.219512zM118.634146 761.756098 112.390244 761.756098l0-31.219512 6.243902 0L118.634146 761.756098zM917.853659 736.780488l-6.243902 0 0-31.219512 6.243902 0L917.853659 736.780488zM118.634146 699.317073 112.390244 699.317073l0-31.219512 6.243902 0L118.634146 699.317073zM917.853659 674.341463l-6.243902 0 0-31.219512 6.243902 0L917.853659 674.341463zM118.634146 636.878049 112.390244 636.878049l0-31.219512 6.243902 0L118.634146 636.878049zM917.853659 611.902439l-6.243902 0 0-31.219512 6.243902 0L917.853659 611.902439zM118.634146 574.439024 112.390244 574.439024l0-31.219512 6.243902 0L118.634146 574.439024zM917.853659 549.463415l-6.243902 0 0-31.219512 6.243902 0L917.853659 549.463415zM118.634146 512 112.390244 512l0-31.219512 6.243902 0L118.634146 512zM917.853659 487.02439l-6.243902 0 0-31.219512 6.243902 0L917.853659 487.02439zM118.634146 449.560976 112.390244 449.560976l0-31.219512 6.243902 0L118.634146 449.560976zM917.853659 424.585366l-6.243902 0 0-31.219512 6.243902 0L917.853659 424.585366zM118.634146 387.121951 112.390244 387.121951l0-31.219512 6.243902 0L118.634146 387.121951zM917.853659 362.146341l-6.243902 0 0-31.219512 6.243902 0L917.853659 362.146341zM118.634146 324.682927 112.390244 324.682927l0-31.219512 6.243902 0L118.634146 324.682927zM917.853659 299.707317l-6.243902 0 0-31.219512 6.243902 0L917.853659 299.707317zM118.634146 262.243902 112.390244 262.243902l0-31.219512 6.243902 0L118.634146 262.243902zM917.853659 237.268293l-6.243902 0 0-31.219512 6.243902 0L917.853659 237.268293zM118.634146 199.804878 112.390244 199.804878l0-31.219512 6.243902 0L118.634146 199.804878zM917.853659 174.829268l-6.243902 0 0-31.219512 6.243902 0L917.853659 174.829268zM118.634146 137.365854 112.390244 137.365854l0-31.219512 6.243902 0L118.634146 137.365854zM917.853659 112.390244l-6.243902 0 0-31.219512 6.243902 0L917.853659 112.390244zM118.634146 74.926829 112.390244 74.926829 112.390244 43.707317l6.243902 0L118.634146 74.926829zM917.853659 49.95122l-6.243902 0L911.609756 18.731707l6.243902 0L917.853659 49.95122zM119.283512 12.43161 113.457951 10.177561C115.818146 4.089756 121.787317 0 128.312195 0L143.609756 0l0 6.243902L128.312195 6.243902C124.347317 6.243902 120.713366 8.728976 119.283512 12.43161zM892.878049 6.243902l-31.219512 0L861.658537 0l31.219512 0L892.878049 6.243902zM830.439024 6.243902l-31.219512 0L799.219512 0l31.219512 0L830.439024 6.243902zM768 6.243902l-31.219512 0L736.780488 0l31.219512 0L768 6.243902zM705.560976 6.243902l-31.219512 0L674.341463 0l31.219512 0L705.560976 6.243902zM643.121951 6.243902l-31.219512 0L611.902439 0l31.219512 0L643.121951 6.243902zM580.682927 6.243902l-31.219512 0L549.463415 0l31.219512 0L580.682927 6.243902zM518.243902 6.243902l-31.219512 0L487.02439 0l31.219512 0L518.243902 6.243902zM455.804878 6.243902l-31.219512 0L424.585366 0l31.219512 0L455.804878 6.243902zM393.365854 6.243902l-31.219512 0L362.146341 0l31.219512 0L393.365854 6.243902zM330.926829 6.243902l-31.219512 0L299.707317 0l31.219512 0L330.926829 6.243902zM268.487805 6.243902l-31.219512 0L237.268293 0l31.219512 0L268.487805 6.243902zM206.04878 6.243902l-31.219512 0L174.829268 0l31.219512 0L206.04878 6.243902z" p-id="1135"></path></svg>